# xmcd CD database file
#
# Track frame offsets:
#	150
#	20248
#	38378
#	58464
#
# Disc length: 1017 seconds
#
# Revision: 0
# Processed by: cddbd v1.5.1PL2 Copyright (c) Steve Scherf et al.
# Submitted via: CDex 1.60beta1
#
DISCID=3103f704
DTITLE=谷山紀章 - Daydreamin'
DYEAR=2005
DGENRE=Anime
TTITLE0=Daydreamin'
TTITLE1=Fly away
TTITLE2=Daydreamin'(off vocal)
TTITLE3=Fly away(off vocal)
EXTD=YEAR: 2005
EXTT0=
EXTT1=
EXTT2=
EXTT3=
PLAYORDER=
